<?xml version="1.0" encoding="UTF-8"?>
<svg id="Capa_2" xmlns="http://www.w3.org/2000/svg" xmlns:xlink="http://www.w3.org/1999/xlink" viewBox="0 0 557.79 72.06">
  <defs>
    <style>
      .cls-1 {
        fill: url(#Degradado_sin_nombre_55-2);
      }

      .cls-2 {
        fill: url(#Degradado_sin_nombre_55);
      }
    </style>
    <linearGradient id="Degradado_sin_nombre_55" data-name="Degradado sin nombre 55" x1="3.95" y1="56.88" x2="61.9" y2="24.71" gradientUnits="userSpaceOnUse">
      <stop offset="0" stop-color="#020267"/>
      <stop offset="1" stop-color="#3c46ff"/>
    </linearGradient>
    <linearGradient id="Degradado_sin_nombre_55-2" data-name="Degradado sin nombre 55" x1="-6.7" y1="34.38" x2="51.26" y2="2.21" xlink:href="#Degradado_sin_nombre_55"/>
  </defs>
  <g id="Capa_1-2" data-name="Capa_1">
    <g>
      <path class="cls-2" d="M38.23.02c-.25-.02-.46.18-.46.43v15.31c0,3.61.22,7.34,2.11,10.41,2.74,4.45,7.28,7.5,12.44,8.34l.69.11c.42.14.75.48.9.9.26.75-.14,1.57-.9,1.83l-.69.11c-7.64,1.25-13.63,7.24-14.88,14.88l-.11.69c-.14.42-.48.75-.9.9-.75.26-1.57-.14-1.83-.9l-.11-.69c-.84-5.16-3.88-9.7-8.34-12.44-3.07-1.89-6.81-2.11-10.41-2.11H.43c-.25,0-.45.21-.43.46,1.14,18.51,16.25,33.24,34.91,33.78h.71c19.84,0,36.4-16.23,36.38-36.08C71.98,16.82,57.06,1.18,38.23.02Z"/>
      <path class="cls-1" d="M.43,34.18h15.31c3.61,0,7.34-.22,10.41-2.11,2.4-1.48,4.42-3.5,5.9-5.9,1.89-3.07,2.11-6.81,2.11-10.41V.43c0-.25-.21-.45-.46-.43C15.6,1.13,1.12,15.62,0,33.72c-.02.25.18.46.43.46Z"/>
    </g>
    <g>
      <path d="M105.17,40.42h12.31c-.05,2.57-.62,4.83-1.74,6.76-1.18,2.03-2.76,3.59-4.75,4.66-1.99,1.08-4.19,1.61-6.61,1.61-2.75,0-5.16-.68-7.21-2.03s-3.65-3.34-4.76-5.95c-1.12-2.61-1.68-5.77-1.68-9.47s.56-6.88,1.68-9.5c1.12-2.61,2.7-4.6,4.74-5.95,2.04-1.35,4.43-2.02,7.17-2.02,2.06,0,3.93.38,5.62,1.14,1.69.76,3.1,1.89,4.24,3.39,1.14,1.5,1.89,3.31,2.24,5.44h6.79c-.45-3.29-1.51-6.12-3.19-8.5s-3.86-4.21-6.54-5.49c-2.69-1.28-5.75-1.92-9.2-1.92-4.15,0-7.76.94-10.85,2.83-3.09,1.89-5.46,4.59-7.12,8.1-1.66,3.51-2.49,7.66-2.49,12.46s.82,8.9,2.47,12.42c1.64,3.52,3.98,6.23,7,8.12,3.02,1.89,6.55,2.83,10.58,2.83,2.91,0,5.51-.55,7.8-1.66,2.29-1.11,4.22-2.77,5.76-4.98.14-.21.26-.44.4-.65l.8,6.35h5.06v-23.61h-18.54v5.61Z"/>
      <rect x="130.09" y="15.53" width="6.24" height="6.8"/>
      <rect x="130.09" y="25.83" width="6.24" height="32.59"/>
      <path d="M158.19,13.55c-.5-.04-1.07-.07-1.7-.09-.63-.02-1.17-.03-1.62-.03-2.21,0-4.01.37-5.41,1.1-1.4.73-2.43,1.79-3.09,3.16s-.99,3.06-.99,5.08v3.07h-4.91v5.15h4.91v27.44h6.22v-27.44h6.55v-5.15h-6.55v-3.07c0-.9.15-1.66.44-2.27s.74-1.08,1.34-1.4c.6-.33,1.36-.49,2.28-.49.3,0,.62,0,.94,0,.33,0,.66,0,.99,0h.77v-5.06s-.06,0-.09,0c-.03,0-.06,0-.08,0Z"/>
      <path d="M171.75,23.71v-7.75h-6.22v9.88h-4.91s0,5.14,0,5.14h4.91v20.25c0,1.79.33,3.21.99,4.28.66,1.07,1.63,1.85,2.91,2.32,1.28.48,2.9.72,4.85.72.46,0,.99-.01,1.58-.03s1.18-.05,1.77-.09c.06,0,.13,0,.2,0s.13,0,.18,0v-5.09h-2.69c-.9,0-1.61-.09-2.12-.28s-.88-.49-1.11-.9c-.23-.41-.35-.95-.35-1.62v-19.55h6.28v-5.15h-6.28s0-2.13,0-2.13Z"/>
      <path d="M211.18,48.41c-1.18,1.73-2.63,3.01-4.35,3.82-1.72.81-3.55,1.22-5.5,1.22-2.63,0-4.92-.67-6.88-2-1.96-1.33-3.48-3.3-4.58-5.91-1.09-2.61-1.64-5.79-1.64-9.55s.54-6.94,1.62-9.54c1.08-2.6,2.6-4.56,4.57-5.9,1.96-1.33,4.26-2,6.88-2,1.88,0,3.61.33,5.18.99,1.57.66,2.94,1.74,4.09,3.23,1.15,1.49,2.01,3.43,2.57,5.83h6.69c-.64-3.61-1.84-6.61-3.59-8.99-1.75-2.38-3.9-4.14-6.45-5.28-2.55-1.14-5.37-1.71-8.48-1.71-3.93,0-7.4.91-10.41,2.74s-5.36,4.5-7.04,8.02c-1.68,3.52-2.52,7.73-2.52,12.63s.84,9.1,2.53,12.61,4.04,6.18,7.06,8.02c3.02,1.83,6.46,2.75,10.32,2.75,3.18,0,6.12-.64,8.83-1.93s4.95-3.24,6.74-5.86c1.79-2.62,2.87-5.84,3.25-9.66h-6.66c-.31,2.59-1.06,4.76-2.24,6.49Z"/>
      <path d="M251.91,53.62c-.4,0-.73-.06-.99-.19-.26-.13-.45-.32-.57-.57-.12-.26-.18-.58-.18-.95v-17.23c0-1.99-.42-3.7-1.24-5.12s-2.15-2.51-3.97-3.29c-1.82-.78-4.18-1.17-7.1-1.17s-5.54.44-7.47,1.32c-1.92.88-3.34,2.12-4.25,3.72s-1.42,3.58-1.53,5.91l6.16-.02c.09-1.5.39-2.69.89-3.55.5-.87,1.24-1.48,2.23-1.84.99-.36,2.29-.54,3.92-.54s2.8.17,3.72.5c.91.33,1.56.83,1.95,1.51.38.68.57,1.55.57,2.62v.19c.01.87-.16,1.59-.5,2.15-.35.56-.86.99-1.53,1.29s-1.52.51-2.54.64l-4.65.58c-2.75.33-4.97.94-6.66,1.83-1.69.9-2.92,2.03-3.69,3.4s-1.15,2.97-1.15,4.8c0,2.08.45,3.83,1.35,5.27.9,1.43,2.17,2.51,3.83,3.23,1.65.72,3.59,1.08,5.82,1.08,2.11,0,3.97-.37,5.57-1.11,1.6-.74,2.93-1.83,3.99-3.27.18-.25.35-.52.51-.79.1.69.27,1.3.5,1.81.42.93,1.08,1.64,1.99,2.1.91.47,2.11.7,3.61.7.5,0,1.02-.02,1.55-.05.53-.03,1.02-.08,1.46-.16v-4.8h-1.59ZM244.05,45.9c0,1.87-.41,3.44-1.23,4.7-.82,1.27-1.89,2.21-3.21,2.82s-2.72.92-4.2.92c-1.27,0-2.33-.2-3.17-.59-.85-.39-1.48-.96-1.9-1.7-.42-.74-.63-1.66-.63-2.75,0-1.01.2-1.87.6-2.58.4-.71,1.06-1.3,1.98-1.76.92-.46,2.18-.8,3.79-1.01l4.19-.61c1.48-.2,2.62-.56,3.43-1.07.13-.08.24-.18.35-.27v3.91Z"/>
      <path d="M273.11,25.36c-2.52,0-4.61.63-6.26,1.89-1.49,1.13-2.61,2.56-3.41,4.25v-5.67h-5.97v32.59h6.24v-17.8c0-2.08.38-3.81,1.14-5.2.76-1.39,1.85-2.42,3.27-3.09s3.13-1.02,5.15-1.02h.73c.26,0,.51,0,.76-.02v-5.86c-.3-.02-.6-.04-.87-.06-.28-.02-.54-.02-.78-.02Z"/>
      <path d="M299.01,30.17c-.81-1.23-1.77-2.27-2.9-3.08-1.86-1.33-4.06-1.99-6.6-1.99-2.73,0-5.11.68-7.13,2.03-2.03,1.35-3.6,3.31-4.71,5.87-1.11,2.56-1.67,5.6-1.67,9.14s.55,6.56,1.66,9.13c1.11,2.57,2.67,4.52,4.7,5.87,2.03,1.34,4.39,2.02,7.1,2.02s4.83-.67,6.69-2.02c1.24-.9,2.26-2.06,3.11-3.45v4.75s5.98,0,5.98,0V13.57h-6.24v16.6ZM298.19,48.55c-.68,1.74-1.65,3.06-2.91,3.95-1.27.89-2.76,1.34-4.48,1.34s-3.19-.43-4.45-1.28-2.22-2.13-2.9-3.84c-.68-1.71-1.02-3.83-1.02-6.36s.34-4.73,1.03-6.51c.69-1.78,1.66-3.13,2.91-4.04,1.25-.91,2.72-1.37,4.41-1.37s3.25.44,4.5,1.33c1.25.89,2.22,2.21,2.9,3.95.68,1.75,1.02,3.89,1.02,6.42s-.34,4.67-1.02,6.41Z"/>
      <path d="M349.29,41.35c-.61,1.83-1.24,3.75-1.9,5.78-.32.97-.6,1.89-.86,2.76-.07-.24-.14-.48-.22-.72-.36-1.26-.75-2.53-1.17-3.82s-.87-2.6-1.35-3.93l-10.06-27.85h-9.23v44.86h6.38v-25.09c0-1.49-.02-3.02-.06-4.6-.04-1.58-.09-3.21-.17-4.9-.03-.73-.07-1.46-.11-2.2.22.75.45,1.5.67,2.22.33.98.65,1.96.98,2.95.33.99.69,2.03,1.07,3.1s.79,2.21,1.22,3.41l9.17,25.11h5.65l9.1-25.14c.65-1.81,1.26-3.52,1.82-5.14s1.07-3.16,1.53-4.61c.17-.54.34-1.11.51-1.67-.07,1.86-.13,3.51-.15,4.91-.04,2.07-.06,4.24-.06,6.51v25.14h6.33V13.57h-9.2l-9.92,27.78Z"/>
      <path d="M402.28,53.62c-.4,0-.73-.06-.99-.19-.26-.13-.45-.32-.57-.57-.12-.26-.18-.58-.18-.95v-17.23c0-1.99-.42-3.7-1.24-5.12s-2.15-2.51-3.97-3.29c-1.82-.78-4.18-1.17-7.1-1.17s-5.54.44-7.47,1.32c-1.92.88-3.34,2.12-4.25,3.72s-1.42,3.58-1.53,5.91l6.16-.02c.09-1.5.39-2.69.89-3.55.5-.87,1.24-1.48,2.23-1.84.99-.36,2.29-.54,3.92-.54s2.8.17,3.72.5c.91.33,1.56.83,1.95,1.51.38.68.57,1.55.57,2.62v.19c.01.87-.16,1.59-.5,2.15-.35.56-.86.99-1.53,1.29s-1.52.51-2.54.64l-4.65.58c-2.75.33-4.97.94-6.66,1.83-1.69.9-2.92,2.03-3.69,3.4s-1.15,2.97-1.15,4.8c0,2.08.45,3.83,1.35,5.27.9,1.43,2.17,2.51,3.83,3.23,1.65.72,3.59,1.08,5.82,1.08,2.11,0,3.97-.37,5.57-1.11,1.6-.74,2.93-1.83,3.99-3.27.18-.25.35-.52.51-.79.1.69.27,1.3.5,1.81.42.93,1.08,1.64,1.99,2.1.91.47,2.11.7,3.61.7.5,0,1.02-.02,1.55-.05.53-.03,1.02-.08,1.46-.16v-4.8h-1.59ZM394.42,45.9c0,1.87-.41,3.44-1.23,4.7-.82,1.27-1.89,2.21-3.21,2.82s-2.72.92-4.2.92c-1.27,0-2.33-.2-3.17-.59-.85-.39-1.48-.96-1.9-1.7-.42-.74-.63-1.66-.63-2.75,0-1.01.2-1.87.6-2.58.4-.71,1.06-1.3,1.98-1.76.92-.46,2.18-.8,3.79-1.01l4.19-.61c1.48-.2,2.62-.56,3.43-1.07.13-.08.24-.18.35-.27v3.91Z"/>
      <path d="M429.33,26.38c-1.61-.85-3.55-1.27-5.8-1.27-1.8,0-3.44.36-4.93,1.08-1.49.72-2.76,1.71-3.8,2.97-.36.43-.68.9-.98,1.37v-4.7h-5.98v32.59h6.24v-18.87c0-1.98.37-3.65,1.11-4.99.74-1.34,1.69-2.34,2.86-2.98s2.4-.96,3.7-.96,2.51.23,3.44.69c.93.46,1.64,1.16,2.14,2.1.5.94.75,2.15.75,3.62v21.39h6.25v-22.21c0-2.39-.43-4.42-1.29-6.08-.86-1.66-2.1-2.91-3.71-3.76Z"/>
      <path d="M467.84,53.62c-.4,0-.73-.06-.99-.19-.26-.13-.45-.32-.57-.57s-.18-.58-.18-.95v-17.23c0-1.99-.42-3.7-1.24-5.12-.83-1.42-2.15-2.51-3.97-3.29-1.82-.78-4.18-1.17-7.1-1.17s-5.54.44-7.47,1.32c-1.92.88-3.34,2.12-4.25,3.72-.91,1.61-1.42,3.58-1.53,5.91l6.16-.02c.09-1.5.39-2.69.89-3.55s1.24-1.48,2.23-1.84c.99-.36,2.29-.54,3.92-.54s2.8.17,3.72.5c.91.33,1.56.83,1.94,1.51s.58,1.55.58,2.62v.19c.01.87-.16,1.59-.5,2.15-.35.56-.86.99-1.53,1.29s-1.52.51-2.54.64l-4.65.58c-2.75.33-4.97.94-6.66,1.83-1.69.9-2.92,2.03-3.69,3.4-.77,1.37-1.15,2.97-1.15,4.8,0,2.08.45,3.83,1.35,5.27.9,1.43,2.17,2.51,3.83,3.23s3.59,1.08,5.82,1.08c2.11,0,3.97-.37,5.57-1.11s2.93-1.83,3.99-3.27c.18-.25.35-.52.51-.79.1.69.27,1.3.5,1.81.42.93,1.08,1.64,1.99,2.1.91.47,2.11.7,3.61.7.5,0,1.02-.02,1.55-.05.53-.03,1.02-.08,1.46-.16v-4.8h-1.59ZM459.99,45.9c0,1.87-.41,3.44-1.23,4.7-.82,1.27-1.89,2.21-3.21,2.82-1.32.61-2.72.92-4.2.92-1.27,0-2.33-.2-3.17-.59-.85-.39-1.48-.96-1.9-1.7s-.63-1.66-.63-2.75c0-1.01.2-1.87.6-2.58.4-.71,1.06-1.3,1.98-1.76.92-.46,2.18-.8,3.79-1.01l4.19-.61c1.48-.2,2.62-.56,3.43-1.07.13-.08.24-.18.35-.27v3.91Z"/>
      <path d="M494.64,30.58c-.86-1.41-1.91-2.59-3.17-3.48-1.86-1.32-4.07-1.98-6.65-1.98-2.72,0-5.09.67-7.11,2.01-2.02,1.34-3.59,3.29-4.7,5.84-1.11,2.56-1.67,5.59-1.67,9.11s.55,6.57,1.66,9.13c1.11,2.56,2.67,4.5,4.69,5.84s4.38,2,7.08,2,4.85-.67,6.72-2.01c1.13-.81,2.08-1.86,2.89-3.08v4.1c0,2.07-.3,3.77-.91,5.1-.6,1.33-1.5,2.31-2.69,2.96-1.19.65-2.67.97-4.43.97-1.44,0-2.67-.22-3.69-.66s-1.83-1.11-2.42-2.01c-.59-.9-.95-2.04-1.07-3.43l-6.17.02c.16,2.3.77,4.28,1.84,5.94,1.07,1.66,2.58,2.93,4.54,3.81,1.95.88,4.28,1.32,6.99,1.32,3.13,0,5.76-.57,7.9-1.71,2.14-1.14,3.73-2.76,4.8-4.87,1.06-2.11,1.59-4.62,1.59-7.53V25.83h-6.02v4.74ZM493.54,48.48c-.68,1.75-1.65,3.08-2.91,3.97-1.27.89-2.76,1.34-4.48,1.34s-3.19-.42-4.45-1.27c-1.25-.84-2.22-2.13-2.9-3.84s-1.02-3.85-1.02-6.39.34-4.72,1.03-6.51c.69-1.79,1.66-3.14,2.91-4.06,1.25-.92,2.72-1.38,4.41-1.38s3.25.45,4.5,1.35c1.25.9,2.22,2.22,2.9,3.97.68,1.75,1.02,3.89,1.02,6.42s-.34,4.66-1.02,6.41Z"/>
      <path d="M528.5,27.25c-2.21-1.44-4.83-2.16-7.88-2.16s-5.57.69-7.8,2.06c-2.23,1.38-3.95,3.34-5.16,5.9-1.21,2.56-1.82,5.58-1.82,9.08s.62,6.63,1.86,9.19c1.24,2.56,2.98,4.5,5.21,5.83s4.84,1.99,7.8,1.99c2.46,0,4.64-.44,6.54-1.32,1.91-.88,3.47-2.14,4.69-3.79,1.22-1.64,2.09-3.57,2.59-5.79h-6.21c-.34,1.24-.84,2.29-1.5,3.14-.67.86-1.51,1.5-2.54,1.94-1.02.44-2.2.65-3.52.65-1.81,0-3.36-.4-4.66-1.2-1.3-.8-2.3-2.04-2.99-3.73-.55-1.35-.88-3.02-.99-4.98h23.07c.01-.34.02-.66.02-.98,0-.32,0-.63,0-.94,0-3.36-.57-6.32-1.72-8.89-1.14-2.57-2.82-4.57-5.02-6.01ZM512.22,39.25c.16-1.55.47-2.91.96-4.05.71-1.68,1.7-2.92,2.95-3.72,1.25-.8,2.74-1.2,4.45-1.2s3.28.43,4.54,1.28c1.26.86,2.21,2.06,2.83,3.61.49,1.2.79,2.55.91,4.06h-16.64Z"/>
      <path d="M556.92,25.39c-.28-.02-.54-.02-.78-.02-2.52,0-4.61.63-6.26,1.89-1.49,1.13-2.61,2.56-3.41,4.25v-5.67h-5.97v32.59h6.24v-17.8c0-2.08.38-3.81,1.14-5.2.76-1.39,1.85-2.42,3.27-3.09s3.13-1.02,5.15-1.02h.73c.26,0,.51,0,.76-.02v-5.86c-.3-.02-.6-.04-.87-.06Z"/>
    </g>
  </g>
</svg>